<svg width="512" height="512" fill="#7d003e" xmlns="http://www.w3.org/2000/svg">

 <g>
  <title>background</title>
  <rect fill="none" id="canvas_background" height="402" width="582" y="-1" x="-1"/>
 </g>
 <g>
  <title>Layer 1</title>
  <g id="svg_1">
   <path id="svg_2" d="m256,0l-256,160l512,0l-256,-160zm144,192l16,32l0,192l64,0l0,-192l16,-32l-352,0l256,0zm-384,0l16,32l0,192l64,0l0,-192l16,-32l-96,0zm0,256l-16,64l512,0l-16,-64l-480,0zm272,-352c0,17.673 -14.327,32 -32,32s-32,-14.327 -32,-32s14.327,-32 32,-32s32,14.327 32,32z"/>
  </g>
  <g id="svg_3"/>
  <g id="svg_4"/>
  <g id="svg_5"/>
  <g id="svg_6"/>
  <g id="svg_7"/>
  <g id="svg_8"/>
  <g id="svg_9"/>
  <g id="svg_10"/>
  <g id="svg_11"/>
  <g id="svg_12"/>
  <g id="svg_13"/>
  <g id="svg_14"/>
  <g id="svg_15"/>
  <g id="svg_16"/>
  <g id="svg_17"/>
  <g stroke="null" id="svg_71">
   <g stroke="null" transform="matrix(5.490844710359312,0,0,5.490844710359312,289.3515662290156,256.5434056101367) " id="svg_54">
    <path stroke="null" id="svg_55" d="m17.444091,-7.689473c-0.701,0 -1.359,0.007 -2.018,0.024l0,-2.238l-0.734,0c-14.262,0 -19.043,3.411 -20.585,5.252c-1.542,-1.841 -6.323,-5.252 -20.585,-5.252l-0.734,0l0,2.237c-0.658,-0.018 -1.316,-0.023 -2.016,-0.023l-1.664,0l0,32.35l1.664,0c17.595,0 21.186,4.035 21.698,4.784l3.302,0c0.557,-0.784 4.218,-4.784 21.673,-4.784l1.663,0l0,-32.35l-1.664,0zm-24.437,30.891c-2.457,-1.812 -7.611,-3.914 -18.383,-4.054l0,-27.202c15.087,0.194 18.001,4.327 18.383,5l0,26.256zm20.585,-4.054c-10.772,0.14 -15.926,2.24 -18.383,4.054l0,-26.247c0.416,-0.737 3.412,-4.814 18.383,-5.007l0,27.2z"/>
   </g>
   <g stroke="null" transform="matrix(5.490844710359312,0,0,5.490844710359312,289.3515662290156,256.5434056101367) " id="svg_56"/>
   <g stroke="null" transform="matrix(5.490844710359312,0,0,5.490844710359312,289.3515662290156,256.5434056101367) " id="svg_57"/>
   <g stroke="null" transform="matrix(5.490844710359312,0,0,5.490844710359312,289.3515662290156,256.5434056101367) " id="svg_58"/>
   <g stroke="null" transform="matrix(5.490844710359312,0,0,5.490844710359312,289.3515662290156,256.5434056101367) " id="svg_59"/>
   <g stroke="null" transform="matrix(5.490844710359312,0,0,5.490844710359312,289.3515662290156,256.5434056101367) " id="svg_60"/>
   <g stroke="null" transform="matrix(5.490844710359312,0,0,5.490844710359312,289.3515662290156,256.5434056101367) " id="svg_61"/>
   <g stroke="null" transform="matrix(5.490844710359312,0,0,5.490844710359312,289.3515662290156,256.5434056101367) " id="svg_62"/>
   <g stroke="null" transform="matrix(5.490844710359312,0,0,5.490844710359312,289.3515662290156,256.5434056101367) " id="svg_63"/>
   <g stroke="null" transform="matrix(5.490844710359312,0,0,5.490844710359312,289.3515662290156,256.5434056101367) " id="svg_64"/>
   <g stroke="null" transform="matrix(5.490844710359312,0,0,5.490844710359312,289.3515662290156,256.5434056101367) " id="svg_65"/>
   <g stroke="null" transform="matrix(5.490844710359312,0,0,5.490844710359312,289.3515662290156,256.5434056101367) " id="svg_66"/>
   <g stroke="null" transform="matrix(5.490844710359312,0,0,5.490844710359312,289.3515662290156,256.5434056101367) " id="svg_67"/>
   <g stroke="null" transform="matrix(5.490844710359312,0,0,5.490844710359312,289.3515662290156,256.5434056101367) " id="svg_68"/>
   <g stroke="null" transform="matrix(5.490844710359312,0,0,5.490844710359312,289.3515662290156,256.5434056101367) " id="svg_69"/>
   <g stroke="null" transform="matrix(5.490844710359312,0,0,5.490844710359312,289.3515662290156,256.5434056101367) " id="svg_70"/>
  </g>
 </g>
</svg>